# xmcd
#
# Track frame offsets:
#	150
#	13743
#	27515
#	39289
#	52222
#	64906
#	81103
#	95084
#	110418
#	125334
#	140195
#	153496
#	166736
#	181937
#	195020
#
# Disc length: 2803 seconds
#
# Revision: 1
# Processed by: cddbd v1.5.2PL0 Copyright (c) Steve Scherf et al.
# Submitted via: audiograbber 1.83.01
#
DISCID=c80af10f
DTITLE=сталоу яема [2005] - апоье л' ецйатекеиьес [яелпетийа]
DYEAR=2005
DGENRE=Blues
TTITLE0=апоье л' ецйатекеиьес
TTITLE1=ежуцес йапоио деикимо
TTITLE2=сто фгтаы циа ватгяи
TTITLE3=боцйа стг мувта о амелос
TTITLE4=лес' стг васапийг ацояа
TTITLE5=ека ажемтг, ека аца лоу
TTITLE6=суммежиаслемо деикимо
TTITLE7=то 'неяа пыс ха лоу жуцеис
TTITLE8=пимеи ма невасеи
TTITLE9=йаме лоу то йежи
TTITLE10=лес' ста бахиа лесамувта
TTITLE11=о кебемтгс поу пома
TTITLE12=спаста йоуйка лоу
TTITLE13=хекы баяиа ма йоилгхы
TTITLE14=сжакла асуцвыягто
EXTD=
EXTT0=
EXTT1=
EXTT2=
EXTT3=
EXTT4=
EXTT5=
EXTT6=
EXTT7=
EXTT8=
EXTT9=
EXTT10=
EXTT11=
EXTT12=
EXTT13=
EXTT14=
PLAYORDER=
